<?xml version="1.0" encoding="UTF-8"?>
<svg width="1600" height="560" viewBox="0 0 1600 560" xmlns="http://www.w3.org/2000/svg" role="img" aria-label="PraxisLex logo horizontal">
  <title>PraxisLex — Donde la teoría se hace práctica</title>
  <defs>
    <linearGradient id="g1" x1="0" y1="0" x2="1" y2="1">
      <stop offset="0%" stop-color="#0E6B4E" />
      <stop offset="100%" stop-color="#1E293B" />
    </linearGradient>
  </defs>
  <g transform="translate(40,40) scale(0.45)">
    <rect x="64" y="64" width="896" height="896" rx="128" fill="url(#g1)"/>
    <circle cx="300" cy="280" r="28" fill="#D4AF37" opacity="0.95"/>
    <circle cx="248" cy="356" r="24" fill="#D4AF37" opacity="0.9"/>
    <circle cx="352" cy="356" r="24" fill="#D4AF37" opacity="0.9"/>
    <rect x="240" y="440" width="48" height="320" rx="16" fill="#F7F5EF" opacity="0.9"/>
    <rect x="320" y="440" width="48" height="320" rx="16" fill="#F7F5EF" opacity="0.85"/>
    <rect x="400" y="440" width="48" height="320" rx="16" fill="#F7F5EF" opacity="0.8"/>
    <path d="M560 320 L560 704 L736 704 C844 704 844 320 736 320 Z" fill="#F7F5EF" opacity="0.15"/>
    <path d="M608 356 L608 668 L720 668 C792 668 792 356 720 356 Z" fill="#F7F5EF" opacity="0.25"/>
    <path d="M600 512 L760 384 L760 640 Z" fill="#D4AF37" opacity="0.9"/>
    <rect x="240" y="776" width="496" height="16" rx="8" fill="#D4AF37" opacity="0.6"/>
  </g>
  <g transform="translate(520,120)">
    <text x="0" y="120" font-family="Playfair Display, Georgia, serif" font-weight="700" font-size="140" fill="#1E293B">Praxis</text>
    <text x="520" y="120" font-family="Inter, system-ui, -apple-system, Segoe UI, Roboto, Helvetica, Arial, sans-serif" font-weight="700" font-size="140" fill="#0E6B4E">Lex</text>
    <text x="0" y="220" font-family="Inter, system-ui, -apple-system, Segoe UI, Roboto, Helvetica, Arial, sans-serif" font-weight="400" font-size="44" fill="#64748B">Donde la teoría se hace práctica.</text>
  </g>
</svg>
